solid TherMoModuino
facet normal 0.0 0.0 -1.0
  outer loop
    vertex 185.78621470233202 69.99999999999989 3.9999999999999956
    vertex 115.78621470233216 67.99999999999989 3.9999999999999956
    vertex 115.78621470233216 69.99999999999989 3.9999999999999956
  endloop
endfacet
facet normal 0.0 0.0 -1.0
  outer loop
    vertex 115.78621470233216 67.99999999999989 3.9999999999999956
    vertex 185.78621470233202 69.99999999999989 3.9999999999999956
    vertex 185.78621470233202 67.99999999999989 3.9999999999999956
  endloop
endfacet
facet normal 0.0 0.0 -1.0
  outer loop
    vertex 115.78621470233216 73.99999999999987 1.9999999999999962
    vertex 112.7862147023322 69.99999999999989 1.9999999999999962
    vertex 112.7862147023322 70.99999999999993 1.9999999999999962
  endloop
endfacet
facet normal 0.0 0.0 -1.0
  outer loop
    vertex 112.7862147023322 69.99999999999989 1.9999999999999962
    vertex 115.78621470233216 73.99999999999987 1.9999999999999962
    vertex 115.78621470233216 69.99999999999989 1.9999999999999962
  endloop
endfacet
facet normal 0.0 0.0 -1.0
  outer loop
    vertex 115.78621470233216 69.99999999999989 1.9999999999999962
    vertex 115.78621470233216 73.99999999999987 1.9999999999999962
    vertex 183.78621470233205 73.99999999999987 1.9999999999999962
  endloop
endfacet
facet normal 0.0 0.0 -1.0
  outer loop
    vertex 115.78621470233216 69.99999999999989 1.9999999999999962
    vertex 183.78621470233205 73.99999999999987 1.9999999999999962
    vertex 188.78621470233207 69.99999999999989 1.9999999999999962
  endloop
endfacet
facet normal 0.0 0.0 -1.0
  outer loop
    vertex 188.78621470233207 69.99999999999989 1.9999999999999962
    vertex 183.78621470233205 73.99999999999987 1.9999999999999962
    vertex 185.78621470233202 73.99999999999987 1.9999999999999962
  endloop
endfacet
facet normal 0.0 0.0 -1.0
  outer loop
    vertex 188.78621470233207 69.99999999999989 1.9999999999999962
    vertex 185.78621470233202 73.99999999999987 1.9999999999999962
    vertex 188.78621470233207 70.99999999999993 1.9999999999999962
  endloop
endfacet
facet normal 1.0 0.0 0.0
  outer loop
    vertex 117.78621470233216 62.99999999999989 6.499999999999996
    vertex 117.78621470233216 3.00000000000002 8.499999999999993
    vertex 117.78621470233216 3.000000000000014 6.499999999999994
  endloop
endfacet
facet normal 1.0 0.0 0.0
  outer loop
    vertex 117.78621470233216 3.00000000000002 8.499999999999993
    vertex 117.78621470233216 62.99999999999989 6.499999999999996
    vertex 117.78621470233216 3.9999999999999925 29.999999999999996
  endloop
endfacet
facet normal 1.0 0.0 0.0
  outer loop
    vertex 117.78621470233216 3.9999999999999925 29.999999999999996
    vertex 117.78621470233216 62.99999999999989 6.499999999999996
    vertex 117.78621470233216 62.99999999999989 29.999999999999996
  endloop
endfacet
facet normal 1.0 0.0 0.0
  outer loop
    vertex 117.78621470233216 4.229949723821846e-15 8.500000000000002
    vertex 117.78621470233216 3.9999999999999925 29.999999999999996
    vertex 117.78621470233216 0.0 28.999999999999996
  endloop
endfacet
facet normal 1.0 0.0 0.0
  outer loop
    vertex 117.78621470233216 3.9999999999999925 29.999999999999996
    vertex 117.78621470233216 4.229949723821846e-15 8.500000000000002
    vertex 117.78621470233216 3.00000000000002 8.499999999999993
  endloop
endfacet
facet normal 2.655857678310481e-17 0.8574929257125485 0.5144957554275196
  outer loop
    vertex 117.78621470233216 73.99999999999987 29.99999999999999
    vertex 185.78621470233202 73.99999999999987 29.99999999999999
    vertex 183.78621470233205 73.99999999999987 29.999999999999986
  endloop
endfacet
facet normal 2.655857678310481e-17 0.8574929257125485 0.5144957554275196
  outer loop
    vertex 185.78621470233202 73.99999999999987 29.99999999999999
    vertex 117.78621470233216 73.99999999999987 29.99999999999999
    vertex 115.78621470233216 73.99999999999987 29.999999999999996
  endloop
endfacet
facet normal 2.655857678310481e-17 0.8574929257125485 0.5144957554275196
  outer loop
    vertex 185.78621470233202 73.99999999999987 29.99999999999999
    vertex 115.78621470233216 73.99999999999987 29.999999999999996
    vertex 188.78621470233207 70.99999999999993 35.0
  endloop
endfacet
facet normal 2.655857678310481e-17 0.8574929257125485 0.5144957554275196
  outer loop
    vertex 188.78621470233207 70.99999999999993 35.0
    vertex 115.78621470233216 73.99999999999987 29.999999999999996
    vertex 112.7862147023322 70.99999999999993 35.0
  endloop
endfacet
facet normal -1.068169122177236e-17 0.0 1.0
  outer loop
    vertex 183.78621470233205 70.99999999999993 3.9999999999999956
    vertex 117.78621470233216 73.99999999999987 3.9999999999999947
    vertex 117.78621470233216 70.99999999999993 3.9999999999999947
  endloop
endfacet
facet normal -1.068169122177236e-17 0.0 1.0
  outer loop
    vertex 117.78621470233216 73.99999999999987 3.9999999999999947
    vertex 183.78621470233205 70.99999999999993 3.9999999999999956
    vertex 183.78621470233205 73.99999999999987 3.9999999999999956
  endloop
endfacet
facet normal 0.0 -1.0 0.0
  outer loop
    vertex 185.78621470233202 0.0 1.9999999999999962
    vertex 183.78621470233205 4.229949723821846e-15 8.500000000000002
    vertex 115.78621470233216 0.0 1.9999999999999962
  endloop
endfacet
facet normal 0.0 -1.0 0.0
  outer loop
    vertex 183.78621470233205 4.229949723821846e-15 8.500000000000002
    vertex 185.78621470233202 0.0 1.9999999999999962
    vertex 185.78621470233202 0.0 28.999999999999996
  endloop
endfacet
facet normal 0.0 -1.0 0.0
  outer loop
    vertex 183.78621470233205 4.229949723821846e-15 8.500000000000002
    vertex 185.78621470233202 0.0 28.999999999999996
    vertex 183.78621470233205 0.0 28.999999999999996
  endloop
endfacet
facet normal 0.0 -1.0 0.0
  outer loop
    vertex 115.78621470233216 0.0 1.9999999999999962
    vertex 117.78621470233216 4.229949723821846e-15 8.500000000000002
    vertex 115.78621470233216 0.0 28.999999999999996
  endloop
endfacet
facet normal 0.0 -1.0 0.0
  outer loop
    vertex 117.78621470233216 4.229949723821846e-15 8.500000000000002
    vertex 115.78621470233216 0.0 1.9999999999999962
    vertex 183.78621470233205 4.229949723821846e-15 8.500000000000002
  endloop
endfacet
facet normal 0.0 -1.0 0.0
  outer loop
    vertex 115.78621470233216 0.0 28.999999999999996
    vertex 117.78621470233216 4.229949723821846e-15 8.500000000000002
    vertex 117.78621470233216 0.0 28.999999999999996
  endloop
endfacet
facet normal 1.0 0.0 0.0
  outer loop
    vertex 119.78621470233215 62.99999999999989 4.499999999999996
    vertex 119.78621470233215 3.0 6.499999999999991
    vertex 119.78621470233215 3.0 4.499999999999996
  endloop
endfacet
facet normal 1.0 0.0 0.0
  outer loop
    vertex 119.78621470233215 3.0 6.499999999999991
    vertex 119.78621470233215 62.99999999999989 4.499999999999996
    vertex 119.78621470233215 62.99999999999989 6.499999999999994
  endloop
endfacet
facet normal -0.7071067811865476 0.7071067811865476 -4.7324917296170505e-18
  outer loop
    vertex 115.78621470233216 73.99999999999987 29.999999999999996
    vertex 112.7862147023322 70.99999999999993 1.9999999999999962
    vertex 112.7862147023322 70.99999999999993 35.0
  endloop
endfacet
facet normal -0.7071067811865476 0.7071067811865476 -4.7324917296170505e-18
  outer loop
    vertex 112.7862147023322 70.99999999999993 1.9999999999999962
    vertex 115.78621470233216 73.99999999999987 29.999999999999996
    vertex 115.78621470233216 73.99999999999987 1.9999999999999962
  endloop
endfacet
facet normal 0.0 0.0 1.0
  outer loop
    vertex 188.78621470233207 69.99999999999989 35.0
    vertex 112.7862147023322 70.99999999999993 35.0
    vertex 112.7862147023322 69.99999999999989 35.0
  endloop
endfacet
facet normal 0.0 0.0 1.0
  outer loop
    vertex 112.7862147023322 70.99999999999993 35.0
    vertex 188.78621470233207 69.99999999999989 35.0
    vertex 188.78621470233207 70.99999999999993 35.0
  endloop
endfacet
facet normal 0.0 0.0 1.0
  outer loop
    vertex 139.7862147023321 62.99999999999989 6.499999999999994
    vertex 119.78621470233215 70.99999999999983 6.499999999999994
    vertex 119.78621470233215 62.99999999999989 6.499999999999994
  endloop
endfacet
facet normal 0.0 0.0 1.0
  outer loop
    vertex 119.78621470233215 70.99999999999983 6.499999999999994
    vertex 139.7862147023321 62.99999999999989 6.499999999999994
    vertex 139.7862147023321 70.99999999999983 6.499999999999994
  endloop
endfacet
facet normal -1.0 0.0 0.0
  outer loop
    vertex 112.7862147023322 70.99999999999993 35.0
    vertex 112.7862147023322 69.99999999999989 1.9999999999999962
    vertex 112.7862147023322 69.99999999999989 35.0
  endloop
endfacet
facet normal -1.0 0.0 0.0
  outer loop
    vertex 112.7862147023322 69.99999999999989 1.9999999999999962
    vertex 112.7862147023322 70.99999999999993 35.0
    vertex 112.7862147023322 70.99999999999993 1.9999999999999962
  endloop
endfacet
facet normal -1.0 0.0 0.0
  outer loop
    vertex 182.98621470233198 64.49999999999989 29.999999999999996
    vertex 182.98621470233198 62.99999999999989 5.499999999999996
    vertex 182.98621470233198 62.99999999999989 29.999999999999996
  endloop
endfacet
facet normal -1.0 0.0 0.0
  outer loop
    vertex 182.98621470233198 62.99999999999989 5.499999999999996
    vertex 182.98621470233198 64.49999999999989 29.999999999999996
    vertex 182.98621470233198 64.49999999999989 5.499999999999996
  endloop
endfacet
facet normal -1.0 0.0 0.0
  outer loop
    vertex 139.7862147023321 70.99999999999983 27.999999999999993
    vertex 139.7862147023321 62.99999999999989 6.499999999999994
    vertex 139.7862147023321 62.99999999999989 27.999999999999876
  endloop
endfacet
facet normal -1.0 0.0 0.0
  outer loop
    vertex 139.7862147023321 62.99999999999989 6.499999999999994
    vertex 139.7862147023321 70.99999999999983 27.999999999999993
    vertex 139.7862147023321 70.99999999999983 6.499999999999994
  endloop
endfacet
facet normal 1.0 0.0 0.0
  outer loop
    vertex 140.58621470233203 64.49999999999989 5.499999999999996
    vertex 140.58621470233203 62.99999999999989 29.999999999999996
    vertex 140.58621470233203 62.99999999999989 5.499999999999996
  endloop
endfacet
facet normal 1.0 0.0 0.0
  outer loop
    vertex 140.58621470233203 62.99999999999989 29.999999999999996
    vertex 140.58621470233203 64.49999999999989 5.499999999999996
    vertex 140.58621470233203 64.49999999999989 29.999999999999996
  endloop
endfacet
facet normal 0.0 1.0 0.0
  outer loop
    vertex 115.78621470233216 73.99999999999987 1.9999999999999962
    vertex 117.78621470233216 73.99999999999987 3.9999999999999947
    vertex 183.78621470233205 73.99999999999987 1.9999999999999962
  endloop
endfacet
facet normal 0.0 1.0 0.0
  outer loop
    vertex 117.78621470233216 73.99999999999987 3.9999999999999947
    vertex 115.78621470233216 73.99999999999987 1.9999999999999962
    vertex 115.78621470233216 73.99999999999987 29.999999999999996
  endloop
endfacet
facet normal 0.0 1.0 0.0
  outer loop
    vertex 117.78621470233216 73.99999999999987 3.9999999999999947
    vertex 115.78621470233216 73.99999999999987 29.999999999999996
    vertex 117.78621470233216 73.99999999999987 29.99999999999999
  endloop
endfacet
facet normal 0.0 1.0 0.0
  outer loop
    vertex 183.78621470233205 73.99999999999987 3.9999999999999956
    vertex 183.78621470233205 73.99999999999987 1.9999999999999962
    vertex 117.78621470233216 73.99999999999987 3.9999999999999947
  endloop
endfacet
facet normal 0.0 -1.0 0.0
  outer loop
    vertex 188.78621470233207 69.99999999999989 1.9999999999999962
    vertex 185.78621470233202 69.99999999999989 3.9999999999999956
    vertex 115.78621470233216 69.99999999999989 1.9999999999999962
  endloop
endfacet
facet normal 0.0 -1.0 0.0
  outer loop
    vertex 185.78621470233202 69.99999999999989 3.9999999999999956
    vertex 188.78621470233207 69.99999999999989 1.9999999999999962
    vertex 188.78621470233207 69.99999999999989 35.0
  endloop
endfacet
facet normal 0.0 -1.0 0.0
  outer loop
    vertex 185.78621470233202 69.99999999999989 3.9999999999999956
    vertex 188.78621470233207 69.99999999999989 35.0
    vertex 185.78621470233202 69.99999999999989 31.999999999999996
  endloop
endfacet
facet normal 0.0 -1.0 0.0
  outer loop
    vertex 185.78621470233202 69.99999999999989 31.999999999999996
    vertex 188.78621470233207 69.99999999999989 35.0
    vertex 115.78621470233216 69.99999999999989 31.999999999999996
  endloop
endfacet
facet normal 0.0 -1.0 0.0
  outer loop
    vertex 115.78621470233216 69.99999999999989 3.9999999999999956
    vertex 112.7862147023322 69.99999999999989 1.9999999999999962
    vertex 115.78621470233216 69.99999999999989 1.9999999999999962
  endloop
endfacet
facet normal 0.0 -1.0 0.0
  outer loop
    vertex 112.7862147023322 69.99999999999989 1.9999999999999962
    vertex 115.78621470233216 69.99999999999989 3.9999999999999956
    vertex 112.7862147023322 69.99999999999989 35.0
  endloop
endfacet
facet normal 0.0 -1.0 0.0
  outer loop
    vertex 112.7862147023322 69.99999999999989 35.0
    vertex 115.78621470233216 69.99999999999989 3.9999999999999956
    vertex 115.78621470233216 69.99999999999989 31.999999999999996
  endloop
endfacet
facet normal 0.0 -1.0 0.0
  outer loop
    vertex 112.7862147023322 69.99999999999989 35.0
    vertex 115.78621470233216 69.99999999999989 31.999999999999996
    vertex 188.78621470233207 69.99999999999989 35.0
  endloop
endfacet
facet normal 0.0 -1.0 0.0
  outer loop
    vertex 115.78621470233216 69.99999999999989 3.9999999999999956
    vertex 115.78621470233216 69.99999999999989 1.9999999999999962
    vertex 185.78621470233202 69.99999999999989 3.9999999999999956
  endloop
endfacet
facet normal 0.0 -0.24253562503633297 0.9701425001453319
  outer loop
    vertex 185.78621470233202 0.0 28.999999999999996
    vertex 183.78621470233205 3.9999999999999925 29.999999999999996
    vertex 183.78621470233205 0.0 28.999999999999996
  endloop
endfacet
facet normal 0.0 -0.24253562503633297 0.9701425001453319
  outer loop
    vertex 183.78621470233205 3.9999999999999925 29.999999999999996
    vertex 185.78621470233202 0.0 28.999999999999996
    vertex 185.78621470233202 3.9999999999999925 29.999999999999996
  endloop
endfacet
facet normal 1.0 0.0 0.0
  outer loop
    vertex 188.78621470233207 70.99999999999993 1.9999999999999962
    vertex 188.78621470233207 69.99999999999989 35.0
    vertex 188.78621470233207 69.99999999999989 1.9999999999999962
  endloop
endfacet
facet normal 1.0 0.0 0.0
  outer loop
    vertex 188.78621470233207 69.99999999999989 35.0
    vertex 188.78621470233207 70.99999999999993 1.9999999999999962
    vertex 188.78621470233207 70.99999999999993 35.0
  endloop
endfacet
facet normal 0.0 0.0 -1.0
  outer loop
    vertex 185.78621470233202 67.99999999999989 1.9999999999999962
    vertex 115.78621470233216 0.0 1.9999999999999962
    vertex 115.78621470233216 67.99999999999989 1.9999999999999962
  endloop
endfacet
facet normal 0.0 0.0 -1.0
  outer loop
    vertex 115.78621470233216 0.0 1.9999999999999962
    vertex 185.78621470233202 67.99999999999989 1.9999999999999962
    vertex 185.78621470233202 0.0 1.9999999999999962
  endloop
endfacet
facet normal 0.0 -0.24253562503633297 0.9701425001453319
  outer loop
    vertex 117.78621470233216 0.0 28.999999999999996
    vertex 115.78621470233216 3.9999999999999925 29.999999999999996
    vertex 115.78621470233216 0.0 28.999999999999996
  endloop
endfacet
facet normal 0.0 -0.24253562503633297 0.9701425001453319
  outer loop
    vertex 115.78621470233216 3.9999999999999925 29.999999999999996
    vertex 117.78621470233216 0.0 28.999999999999996
    vertex 117.78621470233216 3.9999999999999925 29.999999999999996
  endloop
endfacet
facet normal -1.0 0.0 0.0
  outer loop
    vertex 183.78621470233205 73.99999999999987 29.999999999999986
    vertex 183.78621470233205 70.99999999999993 3.9999999999999956
    vertex 183.78621470233205 70.99999999999993 27.99999999999999
  endloop
endfacet
facet normal -1.0 0.0 0.0
  outer loop
    vertex 183.78621470233205 70.99999999999993 3.9999999999999956
    vertex 183.78621470233205 73.99999999999987 29.999999999999986
    vertex 183.78621470233205 73.99999999999987 3.9999999999999956
  endloop
endfacet
facet normal 0.0 0.0 1.0
  outer loop
    vertex 185.78621470233202 65.99999999999989 31.999999999999996
    vertex 115.78621470233216 69.99999999999989 31.999999999999996
    vertex 115.78621470233216 65.99999999999989 31.999999999999996
  endloop
endfacet
facet normal 0.0 0.0 1.0
  outer loop
    vertex 115.78621470233216 69.99999999999989 31.999999999999996
    vertex 185.78621470233202 65.99999999999989 31.999999999999996
    vertex 185.78621470233202 69.99999999999989 31.999999999999996
  endloop
endfacet
facet normal 0.0 -1.0 0.0
  outer loop
    vertex 185.78621470233202 65.99999999999989 31.999999999999996
    vertex 115.78621470233216 65.99999999999989 29.999999999999996
    vertex 185.78621470233202 65.99999999999989 29.999999999999996
  endloop
endfacet
facet normal 0.0 -1.0 0.0
  outer loop
    vertex 115.78621470233216 65.99999999999989 29.999999999999996
    vertex 185.78621470233202 65.99999999999989 31.999999999999996
    vertex 115.78621470233216 65.99999999999989 31.999999999999996
  endloop
endfacet
facet normal 0.0 0.0 1.0
  outer loop
    vertex 183.78621470233205 62.99999999999989 29.999999999999996
    vertex 182.98621470233198 64.49999999999989 29.999999999999996
    vertex 182.98621470233198 62.99999999999989 29.999999999999996
  endloop
endfacet
facet normal 0.0 0.0 1.0
  outer loop
    vertex 185.78621470233202 3.9999999999999925 29.999999999999996
    vertex 183.78621470233205 62.99999999999989 29.999999999999996
    vertex 183.78621470233205 3.9999999999999925 29.999999999999996
  endloop
endfacet
facet normal 0.0 0.0 1.0
  outer loop
    vertex 117.78621470233216 3.9999999999999925 29.999999999999996
    vertex 115.78621470233216 65.99999999999989 29.999999999999996
    vertex 115.78621470233216 3.9999999999999925 29.999999999999996
  endloop
endfacet
facet normal 0.0 0.0 1.0
  outer loop
    vertex 115.78621470233216 65.99999999999989 29.999999999999996
    vertex 117.78621470233216 3.9999999999999925 29.999999999999996
    vertex 117.78621470233216 62.99999999999989 29.999999999999996
  endloop
endfacet
facet normal 0.0 0.0 1.0
  outer loop
    vertex 115.78621470233216 65.99999999999989 29.999999999999996
    vertex 117.78621470233216 62.99999999999989 29.999999999999996
    vertex 140.58621470233203 64.49999999999989 29.999999999999996
  endloop
endfacet
facet normal 0.0 0.0 1.0
  outer loop
    vertex 115.78621470233216 65.99999999999989 29.999999999999996
    vertex 140.58621470233203 64.49999999999989 29.999999999999996
    vertex 185.78621470233202 65.99999999999989 29.999999999999996
  endloop
endfacet
facet normal 0.0 0.0 1.0
  outer loop
    vertex 140.58621470233203 64.49999999999989 29.999999999999996
    vertex 117.78621470233216 62.99999999999989 29.999999999999996
    vertex 140.58621470233203 62.99999999999989 29.999999999999996
  endloop
endfacet
facet normal 0.0 0.0 1.0
  outer loop
    vertex 185.78621470233202 65.99999999999989 29.999999999999996
    vertex 140.58621470233203 64.49999999999989 29.999999999999996
    vertex 182.98621470233198 64.49999999999989 29.999999999999996
  endloop
endfacet
facet normal 0.0 0.0 1.0
  outer loop
    vertex 185.78621470233202 65.99999999999989 29.999999999999996
    vertex 182.98621470233198 64.49999999999989 29.999999999999996
    vertex 183.78621470233205 62.99999999999989 29.999999999999996
  endloop
endfacet
facet normal 0.0 0.0 1.0
  outer loop
    vertex 185.78621470233202 65.99999999999989 29.999999999999996
    vertex 183.78621470233205 62.99999999999989 29.999999999999996
    vertex 185.78621470233202 3.9999999999999925 29.999999999999996
  endloop
endfacet
facet normal -0.0 -0.0 -1.0
  outer loop
    vertex 176.28621470233207 70.99999999999979 24.999999999999993
    vertex 145.28621470233207 64.49999999999989 24.999999999999993
    vertex 145.28621470233207 70.99999999999979 24.999999999999993
  endloop
endfacet
facet normal -0.0 -0.0 -1.0
  outer loop
    vertex 145.28621470233207 64.49999999999989 24.999999999999993
    vertex 176.28621470233207 70.99999999999979 24.999999999999993
    vertex 176.28621470233207 64.49999999999989 24.999999999999993
  endloop
endfacet
facet normal 0.707106781186537 0.7071067811865581 -5.72329750416293e-18
  outer loop
    vertex 185.78621470233202 73.99999999999987 3.9999999999999956
    vertex 188.78621470233207 70.99999999999993 1.9999999999999962
    vertex 185.78621470233202 73.99999999999987 1.9999999999999962
  endloop
endfacet
facet normal 0.707106781186537 0.7071067811865581 -5.72329750416293e-18
  outer loop
    vertex 188.78621470233207 70.99999999999993 1.9999999999999962
    vertex 185.78621470233202 73.99999999999987 3.9999999999999956
    vertex 188.78621470233207 70.99999999999993 35.0
  endloop
endfacet
facet normal 0.707106781186537 0.7071067811865581 -5.72329750416293e-18
  outer loop
    vertex 188.78621470233207 70.99999999999993 35.0
    vertex 185.78621470233202 73.99999999999987 3.9999999999999956
    vertex 185.78621470233202 73.99999999999987 29.99999999999999
  endloop
endfacet
facet normal -1.0 0.0 0.0
  outer loop
    vertex 181.78621470233205 62.99999999999989 5.499999999999996
    vertex 181.78621470233205 59.9999999999999 4.499999999999996
    vertex 181.78621470233205 59.9999999999999 5.499999999999996
  endloop
endfacet
facet normal -1.0 0.0 0.0
  outer loop
    vertex 181.78621470233205 59.9999999999999 4.499999999999996
    vertex 181.78621470233205 62.99999999999989 5.499999999999996
    vertex 181.78621470233205 62.99999999999989 4.499999999999996
  endloop
endfacet
facet normal 0.0 1.3159843585223612e-14 -1.0
  outer loop
    vertex 139.7862147023321 70.99999999999983 27.999999999999993
    vertex 119.78621470233215 62.99999999999989 27.999999999999876
    vertex 119.78621470233215 70.99999999999983 27.999999999999993
  endloop
endfacet
facet normal 0.0 1.3159843585223612e-14 -1.0
  outer loop
    vertex 119.78621470233215 62.99999999999989 27.999999999999876
    vertex 139.7862147023321 70.99999999999983 27.999999999999993
    vertex 139.7862147023321 62.99999999999989 27.999999999999876
  endloop
endfacet
facet normal -1.0 0.0 0.0
  outer loop
    vertex 181.78621470233205 59.9999999999999 6.499999999999996
    vertex 181.78621470233205 3.0 4.499999999999996
    vertex 181.78621470233205 3.0 6.499999999999991
  endloop
endfacet
facet normal -1.0 0.0 0.0
  outer loop
    vertex 181.78621470233205 3.0 4.499999999999996
    vertex 181.78621470233205 59.9999999999999 6.499999999999996
    vertex 181.78621470233205 59.9999999999999 4.499999999999996
  endloop
endfacet
facet normal -1.0 0.0 0.0
  outer loop
    vertex 181.78621470233205 59.9999999999999 4.499999999999996
    vertex 181.78621470233205 59.9999999999999 6.499999999999996
    vertex 181.78621470233205 59.9999999999999 5.499999999999996
  endloop
endfacet
facet normal 0.0 0.0 1.0
  outer loop
    vertex 176.28621470233207 64.49999999999989 9.999999999999995
    vertex 145.28621470233207 70.99999999999979 9.999999999999995
    vertex 145.28621470233207 64.49999999999989 9.999999999999995
  endloop
endfacet
facet normal 0.0 0.0 1.0
  outer loop
    vertex 145.28621470233207 70.99999999999979 9.999999999999995
    vertex 176.28621470233207 64.49999999999989 9.999999999999995
    vertex 176.28621470233207 70.99999999999979 9.999999999999995
  endloop
endfacet
facet normal 0.0 1.0 0.0
  outer loop
    vertex 183.78621470233205 73.99999999999987 3.9999999999999956
    vertex 185.78621470233202 73.99999999999987 1.9999999999999962
    vertex 183.78621470233205 73.99999999999987 1.9999999999999962
  endloop
endfacet
facet normal 0.0 1.0 0.0
  outer loop
    vertex 185.78621470233202 73.99999999999987 1.9999999999999962
    vertex 183.78621470233205 73.99999999999987 3.9999999999999956
    vertex 185.78621470233202 73.99999999999987 3.9999999999999956
  endloop
endfacet
facet normal 0.0 -1.0 0.0
  outer loop
    vertex 140.58621470233203 62.99999999999989 29.999999999999996
    vertex 139.7862147023321 62.99999999999989 6.499999999999994
    vertex 140.58621470233203 62.99999999999989 5.499999999999996
  endloop
endfacet
facet normal 0.0 -1.0 0.0
  outer loop
    vertex 139.7862147023321 62.99999999999989 6.499999999999994
    vertex 140.58621470233203 62.99999999999989 29.999999999999996
    vertex 139.7862147023321 62.99999999999989 27.999999999999876
  endloop
endfacet
facet normal 0.0 -1.0 0.0
  outer loop
    vertex 139.7862147023321 62.99999999999989 27.999999999999876
    vertex 140.58621470233203 62.99999999999989 29.999999999999996
    vertex 119.78621470233215 62.99999999999989 27.999999999999876
  endloop
endfacet
facet normal 0.0 -1.0 0.0
  outer loop
    vertex 119.78621470233215 62.99999999999989 27.999999999999876
    vertex 117.78621470233216 62.99999999999989 6.499999999999996
    vertex 119.78621470233215 62.99999999999989 6.499999999999994
  endloop
endfacet
facet normal 0.0 -1.0 0.0
  outer loop
    vertex 117.78621470233216 62.99999999999989 6.499999999999996
    vertex 119.78621470233215 62.99999999999989 27.999999999999876
    vertex 117.78621470233216 62.99999999999989 29.999999999999996
  endloop
endfacet
facet normal 0.0 -1.0 0.0
  outer loop
    vertex 117.78621470233216 62.99999999999989 29.999999999999996
    vertex 119.78621470233215 62.99999999999989 27.999999999999876
    vertex 140.58621470233203 62.99999999999989 29.999999999999996
  endloop
endfacet
facet normal 0.0 -1.0 0.0
  outer loop
    vertex 181.78621470233205 62.99999999999989 5.499999999999996
    vertex 119.78621470233215 62.99999999999989 4.499999999999996
    vertex 181.78621470233205 62.99999999999989 4.499999999999996
  endloop
endfacet
facet normal 0.0 -1.0 0.0
  outer loop
    vertex 119.78621470233215 62.99999999999989 4.499999999999996
    vertex 181.78621470233205 62.99999999999989 5.499999999999996
    vertex 140.58621470233203 62.99999999999989 5.499999999999996
  endloop
endfacet
facet normal 0.0 -1.0 0.0
  outer loop
    vertex 119.78621470233215 62.99999999999989 4.499999999999996
    vertex 140.58621470233203 62.99999999999989 5.499999999999996
    vertex 119.78621470233215 62.99999999999989 6.499999999999994
  endloop
endfacet
facet normal 0.0 -1.0 0.0
  outer loop
    vertex 119.78621470233215 62.99999999999989 6.499999999999994
    vertex 140.58621470233203 62.99999999999989 5.499999999999996
    vertex 139.7862147023321 62.99999999999989 6.499999999999994
  endloop
endfacet
facet normal 0.0 0.0 1.0
  outer loop
    vertex 183.78621470233205 59.9999999999999 5.499999999999996
    vertex 181.78621470233205 62.99999999999989 5.499999999999996
    vertex 181.78621470233205 59.9999999999999 5.499999999999996
  endloop
endfacet
facet normal 0.0 0.0 1.0
  outer loop
    vertex 181.78621470233205 62.99999999999989 5.499999999999996
    vertex 183.78621470233205 59.9999999999999 5.499999999999996
    vertex 182.98621470233198 62.99999999999989 5.499999999999996
  endloop
endfacet
facet normal 0.0 0.0 1.0
  outer loop
    vertex 182.98621470233198 62.99999999999989 5.499999999999996
    vertex 183.78621470233205 59.9999999999999 5.499999999999996
    vertex 183.78621470233205 62.99999999999989 5.499999999999996
  endloop
endfacet
facet normal -6.705279136120962e-16 1.0 1.828300114168256e-16
  outer loop
    vertex 117.78621470233216 70.99999999999993 3.9999999999999947
    vertex 119.78621470233215 70.99999999999983 6.499999999999994
    vertex 183.78621470233205 70.99999999999993 3.9999999999999956
  endloop
endfacet
facet normal -6.705279136120962e-16 1.0 1.828300114168256e-16
  outer loop
    vertex 119.78621470233215 70.99999999999983 6.499999999999994
    vertex 117.78621470233216 70.99999999999993 3.9999999999999947
    vertex 117.78621470233216 70.99999999999993 27.999999999999993
  endloop
endfacet
facet normal -6.705279136120962e-16 1.0 1.828300114168256e-16
  outer loop
    vertex 119.78621470233215 70.99999999999983 6.499999999999994
    vertex 117.78621470233216 70.99999999999993 27.999999999999993
    vertex 119.78621470233215 70.99999999999983 27.999999999999993
  endloop
endfacet
facet normal -6.705279136120962e-16 1.0 1.828300114168256e-16
  outer loop
    vertex 139.7862147023321 70.99999999999983 27.999999999999993
    vertex 145.28621470233207 70.99999999999979 9.999999999999995
    vertex 139.7862147023321 70.99999999999983 6.499999999999994
  endloop
endfacet
facet normal -6.705279136120962e-16 1.0 1.828300114168256e-16
  outer loop
    vertex 145.28621470233207 70.99999999999979 9.999999999999995
    vertex 139.7862147023321 70.99999999999983 27.999999999999993
    vertex 145.28621470233207 70.99999999999979 24.999999999999993
  endloop
endfacet
facet normal -6.705279136120962e-16 1.0 1.828300114168256e-16
  outer loop
    vertex 145.28621470233207 70.99999999999979 24.999999999999993
    vertex 139.7862147023321 70.99999999999983 27.999999999999993
    vertex 176.28621470233207 70.99999999999979 24.999999999999993
  endloop
endfacet
facet normal -6.705279136120962e-16 1.0 1.828300114168256e-16
  outer loop
    vertex 176.28621470233207 70.99999999999979 24.999999999999993
    vertex 139.7862147023321 70.99999999999983 27.999999999999993
    vertex 183.78621470233205 70.99999999999993 27.99999999999999
  endloop
endfacet
facet normal -6.705279136120962e-16 1.0 1.828300114168256e-16
  outer loop
    vertex 183.78621470233205 70.99999999999993 3.9999999999999956
    vertex 176.28621470233207 70.99999999999979 9.999999999999995
    vertex 183.78621470233205 70.99999999999993 27.99999999999999
  endloop
endfacet
facet normal -6.705279136120962e-16 1.0 1.828300114168256e-16
  outer loop
    vertex 176.28621470233207 70.99999999999979 9.999999999999995
    vertex 183.78621470233205 70.99999999999993 3.9999999999999956
    vertex 139.7862147023321 70.99999999999983 6.499999999999994
  endloop
endfacet
facet normal -6.705279136120962e-16 1.0 1.828300114168256e-16
  outer loop
    vertex 139.7862147023321 70.99999999999983 6.499999999999994
    vertex 183.78621470233205 70.99999999999993 3.9999999999999956
    vertex 119.78621470233215 70.99999999999983 6.499999999999994
  endloop
endfacet
facet normal -6.705279136120962e-16 1.0 1.828300114168256e-16
  outer loop
    vertex 176.28621470233207 70.99999999999979 9.999999999999995
    vertex 139.7862147023321 70.99999999999983 6.499999999999994
    vertex 145.28621470233207 70.99999999999979 9.999999999999995
  endloop
endfacet
facet normal -6.705279136120962e-16 1.0 1.828300114168256e-16
  outer loop
    vertex 183.78621470233205 70.99999999999993 27.99999999999999
    vertex 176.28621470233207 70.99999999999979 9.999999999999995
    vertex 176.28621470233207 70.99999999999979 24.999999999999993
  endloop
endfacet
facet normal -1.111726193740997e-17 2.9962143877071334e-15 1.0
  outer loop
    vertex 183.78621470233205 4.229949723821846e-15 8.500000000000002
    vertex 117.78621470233216 3.00000000000002 8.499999999999993
    vertex 117.78621470233216 4.229949723821846e-15 8.500000000000002
  endloop
endfacet
facet normal -1.111726193740997e-17 2.9962143877071334e-15 1.0
  outer loop
    vertex 117.78621470233216 3.00000000000002 8.499999999999993
    vertex 183.78621470233205 4.229949723821846e-15 8.500000000000002
    vertex 183.78621470233205 3.0000000000000115 8.499999999999996
  endloop
endfacet
facet normal -1.0 0.0 0.0
  outer loop
    vertex 176.28621470233207 70.99999999999979 24.999999999999993
    vertex 176.28621470233207 64.49999999999989 9.999999999999995
    vertex 176.28621470233207 64.49999999999989 24.999999999999993
  endloop
endfacet
facet normal -1.0 0.0 0.0
  outer loop
    vertex 176.28621470233207 64.49999999999989 9.999999999999995
    vertex 176.28621470233207 70.99999999999979 24.999999999999993
    vertex 176.28621470233207 70.99999999999979 9.999999999999995
  endloop
endfacet
facet normal -2.8178419902064974e-16 0.5547001962252296 -0.8320502943378434
  outer loop
    vertex 183.78621470233205 73.99999999999987 29.999999999999986
    vertex 117.78621470233216 70.99999999999993 27.999999999999993
    vertex 117.78621470233216 73.99999999999987 29.99999999999999
  endloop
endfacet
facet normal -2.8178419902064974e-16 0.5547001962252296 -0.8320502943378434
  outer loop
    vertex 117.78621470233216 70.99999999999993 27.999999999999993
    vertex 183.78621470233205 73.99999999999987 29.999999999999986
    vertex 119.78621470233215 70.99999999999983 27.999999999999993
  endloop
endfacet
facet normal -2.8178419902064974e-16 0.5547001962252296 -0.8320502943378434
  outer loop
    vertex 119.78621470233215 70.99999999999983 27.999999999999993
    vertex 183.78621470233205 73.99999999999987 29.999999999999986
    vertex 139.7862147023321 70.99999999999983 27.999999999999993
  endloop
endfacet
facet normal -2.8178419902064974e-16 0.5547001962252296 -0.8320502943378434
  outer loop
    vertex 139.7862147023321 70.99999999999983 27.999999999999993
    vertex 183.78621470233205 73.99999999999987 29.999999999999986
    vertex 183.78621470233205 70.99999999999993 27.99999999999999
  endloop
endfacet
facet normal 1.0 0.0 0.0
  outer loop
    vertex 185.78621470233202 67.99999999999989 1.9999999999999962
    vertex 185.78621470233202 0.0 28.999999999999996
    vertex 185.78621470233202 0.0 1.9999999999999962
  endloop
endfacet
facet normal 1.0 0.0 0.0
  outer loop
    vertex 185.78621470233202 0.0 28.999999999999996
    vertex 185.78621470233202 67.99999999999989 1.9999999999999962
    vertex 185.78621470233202 3.9999999999999925 29.999999999999996
  endloop
endfacet
facet normal 1.0 0.0 0.0
  outer loop
    vertex 185.78621470233202 3.9999999999999925 29.999999999999996
    vertex 185.78621470233202 67.99999999999989 1.9999999999999962
    vertex 185.78621470233202 65.99999999999989 29.999999999999996
  endloop
endfacet
facet normal 1.0 0.0 0.0
  outer loop
    vertex 185.78621470233202 65.99999999999989 29.999999999999996
    vertex 185.78621470233202 67.99999999999989 1.9999999999999962
    vertex 185.78621470233202 65.99999999999989 31.999999999999996
  endloop
endfacet
facet normal 1.0 0.0 0.0
  outer loop
    vertex 185.78621470233202 65.99999999999989 31.999999999999996
    vertex 185.78621470233202 67.99999999999989 1.9999999999999962
    vertex 185.78621470233202 67.99999999999989 3.9999999999999956
  endloop
endfacet
facet normal 1.0 0.0 0.0
  outer loop
    vertex 185.78621470233202 65.99999999999989 31.999999999999996
    vertex 185.78621470233202 67.99999999999989 3.9999999999999956
    vertex 185.78621470233202 69.99999999999989 31.999999999999996
  endloop
endfacet
facet normal 1.0 0.0 0.0
  outer loop
    vertex 185.78621470233202 69.99999999999989 31.999999999999996
    vertex 185.78621470233202 67.99999999999989 3.9999999999999956
    vertex 185.78621470233202 69.99999999999989 3.9999999999999956
  endloop
endfacet
facet normal 0.0 -1.0 0.0
  outer loop
    vertex 182.98621470233198 64.49999999999989 5.499999999999996
    vertex 176.28621470233207 64.49999999999989 9.999999999999995
    vertex 140.58621470233203 64.49999999999989 5.499999999999996
  endloop
endfacet
facet normal 0.0 -1.0 0.0
  outer loop
    vertex 176.28621470233207 64.49999999999989 9.999999999999995
    vertex 182.98621470233198 64.49999999999989 5.499999999999996
    vertex 182.98621470233198 64.49999999999989 29.999999999999996
  endloop
endfacet
facet normal 0.0 -1.0 0.0
  outer loop
    vertex 176.28621470233207 64.49999999999989 9.999999999999995
    vertex 182.98621470233198 64.49999999999989 29.999999999999996
    vertex 176.28621470233207 64.49999999999989 24.999999999999993
  endloop
endfacet
facet normal 0.0 -1.0 0.0
  outer loop
    vertex 176.28621470233207 64.49999999999989 24.999999999999993
    vertex 182.98621470233198 64.49999999999989 29.999999999999996
    vertex 145.28621470233207 64.49999999999989 24.999999999999993
  endloop
endfacet
facet normal 0.0 -1.0 0.0
  outer loop
    vertex 140.58621470233203 64.49999999999989 5.499999999999996
    vertex 145.28621470233207 64.49999999999989 9.999999999999995
    vertex 140.58621470233203 64.49999999999989 29.999999999999996
  endloop
endfacet
facet normal 0.0 -1.0 0.0
  outer loop
    vertex 145.28621470233207 64.49999999999989 9.999999999999995
    vertex 140.58621470233203 64.49999999999989 5.499999999999996
    vertex 176.28621470233207 64.49999999999989 9.999999999999995
  endloop
endfacet
facet normal 0.0 -1.0 0.0
  outer loop
    vertex 140.58621470233203 64.49999999999989 29.999999999999996
    vertex 145.28621470233207 64.49999999999989 9.999999999999995
    vertex 145.28621470233207 64.49999999999989 24.999999999999993
  endloop
endfacet
facet normal 0.0 -1.0 0.0
  outer loop
    vertex 140.58621470233203 64.49999999999989 29.999999999999996
    vertex 145.28621470233207 64.49999999999989 24.999999999999993
    vertex 182.98621470233198 64.49999999999989 29.999999999999996
  endloop
endfacet
facet normal 8.417724401361734e-17 1.0 -3.345598924119585e-15
  outer loop
    vertex 119.78621470233215 3.0 6.499999999999991
    vertex 181.78621470233205 3.0 4.499999999999996
    vertex 119.78621470233215 3.0 4.499999999999996
  endloop
endfacet
facet normal 8.417724401361734e-17 1.0 -3.345598924119585e-15
  outer loop
    vertex 181.78621470233205 3.0 4.499999999999996
    vertex 119.78621470233215 3.0 6.499999999999991
    vertex 181.78621470233205 3.0 6.499999999999991
  endloop
endfacet
facet normal 8.417724401361734e-17 1.0 -3.345598924119585e-15
  outer loop
    vertex 181.78621470233205 3.0 6.499999999999991
    vertex 119.78621470233215 3.0 6.499999999999991
    vertex 117.78621470233216 3.000000000000014 6.499999999999994
  endloop
endfacet
facet normal 8.417724401361734e-17 1.0 -3.345598924119585e-15
  outer loop
    vertex 181.78621470233205 3.0 6.499999999999991
    vertex 117.78621470233216 3.000000000000014 6.499999999999994
    vertex 183.78621470233205 3.0000000000000058 6.499999999999996
  endloop
endfacet
facet normal 8.417724401361734e-17 1.0 -3.345598924119585e-15
  outer loop
    vertex 183.78621470233205 3.0000000000000058 6.499999999999996
    vertex 117.78621470233216 3.000000000000014 6.499999999999994
    vertex 117.78621470233216 3.00000000000002 8.499999999999993
  endloop
endfacet
facet normal 8.417724401361734e-17 1.0 -3.345598924119585e-15
  outer loop
    vertex 183.78621470233205 3.0000000000000058 6.499999999999996
    vertex 117.78621470233216 3.00000000000002 8.499999999999993
    vertex 183.78621470233205 3.0000000000000115 8.499999999999996
  endloop
endfacet
facet normal 8.812395257962193e-16 -4.112451120382358e-17 1.0
  outer loop
    vertex 119.78621470233215 3.0 6.499999999999991
    vertex 117.78621470233216 62.99999999999989 6.499999999999996
    vertex 117.78621470233216 3.000000000000014 6.499999999999994
  endloop
endfacet
facet normal 8.812395257962193e-16 -4.112451120382358e-17 1.0
  outer loop
    vertex 117.78621470233216 62.99999999999989 6.499999999999996
    vertex 119.78621470233215 3.0 6.499999999999991
    vertex 119.78621470233215 62.99999999999989 6.499999999999994
  endloop
endfacet
facet normal 1.0 0.0 0.0
  outer loop
    vertex 119.78621470233215 70.99999999999983 6.499999999999994
    vertex 119.78621470233215 62.99999999999989 27.999999999999876
    vertex 119.78621470233215 62.99999999999989 6.499999999999994
  endloop
endfacet
facet normal 1.0 0.0 0.0
  outer loop
    vertex 119.78621470233215 62.99999999999989 27.999999999999876
    vertex 119.78621470233215 70.99999999999983 6.499999999999994
    vertex 119.78621470233215 70.99999999999983 27.999999999999993
  endloop
endfacet
facet normal -1.0 0.0 0.0
  outer loop
    vertex 183.78621470233205 3.9999999999999925 29.999999999999996
    vertex 183.78621470233205 4.229949723821846e-15 8.500000000000002
    vertex 183.78621470233205 0.0 28.999999999999996
  endloop
endfacet
facet normal -1.0 0.0 0.0
  outer loop
    vertex 183.78621470233205 4.229949723821846e-15 8.500000000000002
    vertex 183.78621470233205 3.9999999999999925 29.999999999999996
    vertex 183.78621470233205 3.0000000000000115 8.499999999999996
  endloop
endfacet
facet normal -1.0 0.0 0.0
  outer loop
    vertex 183.78621470233205 3.0000000000000115 8.499999999999996
    vertex 183.78621470233205 59.9999999999999 6.499999999999996
    vertex 183.78621470233205 3.0000000000000058 6.499999999999996
  endloop
endfacet
facet normal -1.0 0.0 0.0
  outer loop
    vertex 183.78621470233205 59.9999999999999 6.499999999999996
    vertex 183.78621470233205 3.0000000000000115 8.499999999999996
    vertex 183.78621470233205 3.9999999999999925 29.999999999999996
  endloop
endfacet
facet normal -1.0 0.0 0.0
  outer loop
    vertex 183.78621470233205 59.9999999999999 6.499999999999996
    vertex 183.78621470233205 3.9999999999999925 29.999999999999996
    vertex 183.78621470233205 62.99999999999989 29.999999999999996
  endloop
endfacet
facet normal -1.0 0.0 0.0
  outer loop
    vertex 183.78621470233205 59.9999999999999 6.499999999999996
    vertex 183.78621470233205 62.99999999999989 29.999999999999996
    vertex 183.78621470233205 59.9999999999999 5.499999999999996
  endloop
endfacet
facet normal -1.0 0.0 0.0
  outer loop
    vertex 183.78621470233205 59.9999999999999 5.499999999999996
    vertex 183.78621470233205 62.99999999999989 29.999999999999996
    vertex 183.78621470233205 62.99999999999989 5.499999999999996
  endloop
endfacet
facet normal -3.3394515685518247e-18 -3.1056899587531964e-18 1.0
  outer loop
    vertex 181.78621470233205 3.0 4.499999999999996
    vertex 119.78621470233215 62.99999999999989 4.499999999999996
    vertex 119.78621470233215 3.0 4.499999999999996
  endloop
endfacet
facet normal -3.3394515685518247e-18 -3.1056899587531964e-18 1.0
  outer loop
    vertex 119.78621470233215 62.99999999999989 4.499999999999996
    vertex 181.78621470233205 3.0 4.499999999999996
    vertex 181.78621470233205 62.99999999999989 4.499999999999996
  endloop
endfacet
facet normal -3.3394515685518247e-18 -3.1056899587531964e-18 1.0
  outer loop
    vertex 181.78621470233205 62.99999999999989 4.499999999999996
    vertex 181.78621470233205 3.0 4.499999999999996
    vertex 181.78621470233205 59.9999999999999 4.499999999999996
  endloop
endfacet
facet normal 0.0 1.0 0.0
  outer loop
    vertex 115.78621470233216 67.99999999999989 3.9999999999999956
    vertex 185.78621470233202 67.99999999999989 1.9999999999999962
    vertex 115.78621470233216 67.99999999999989 1.9999999999999962
  endloop
endfacet
facet normal 0.0 1.0 0.0
  outer loop
    vertex 185.78621470233202 67.99999999999989 1.9999999999999962
    vertex 115.78621470233216 67.99999999999989 3.9999999999999956
    vertex 185.78621470233202 67.99999999999989 3.9999999999999956
  endloop
endfacet
facet normal 0.0 -1.0 0.0
  outer loop
    vertex 183.78621470233205 62.99999999999989 29.999999999999996
    vertex 182.98621470233198 62.99999999999989 5.499999999999996
    vertex 183.78621470233205 62.99999999999989 5.499999999999996
  endloop
endfacet
facet normal 0.0 -1.0 0.0
  outer loop
    vertex 182.98621470233198 62.99999999999989 5.499999999999996
    vertex 183.78621470233205 62.99999999999989 29.999999999999996
    vertex 182.98621470233198 62.99999999999989 29.999999999999996
  endloop
endfacet
facet normal 0.0 1.0 1.762479051592439e-17
  outer loop
    vertex 181.78621470233205 59.9999999999999 6.499999999999996
    vertex 183.78621470233205 59.9999999999999 5.499999999999996
    vertex 181.78621470233205 59.9999999999999 5.499999999999996
  endloop
endfacet
facet normal 0.0 1.0 1.762479051592439e-17
  outer loop
    vertex 183.78621470233205 59.9999999999999 5.499999999999996
    vertex 181.78621470233205 59.9999999999999 6.499999999999996
    vertex 183.78621470233205 59.9999999999999 6.499999999999996
  endloop
endfacet
facet normal 1.0 0.0 0.0
  outer loop
    vertex 145.28621470233207 70.99999999999979 9.999999999999995
    vertex 145.28621470233207 64.49999999999989 24.999999999999993
    vertex 145.28621470233207 64.49999999999989 9.999999999999995
  endloop
endfacet
facet normal 1.0 0.0 0.0
  outer loop
    vertex 145.28621470233207 64.49999999999989 24.999999999999993
    vertex 145.28621470233207 70.99999999999979 9.999999999999995
    vertex 145.28621470233207 70.99999999999979 24.999999999999993
  endloop
endfacet
facet normal 0.0 0.0 1.0
  outer loop
    vertex 181.78621470233205 62.99999999999989 5.499999999999996
    vertex 140.58621470233203 64.49999999999989 5.499999999999996
    vertex 140.58621470233203 62.99999999999989 5.499999999999996
  endloop
endfacet
facet normal 0.0 0.0 1.0
  outer loop
    vertex 140.58621470233203 64.49999999999989 5.499999999999996
    vertex 181.78621470233205 62.99999999999989 5.499999999999996
    vertex 182.98621470233198 64.49999999999989 5.499999999999996
  endloop
endfacet
facet normal 0.0 0.0 1.0
  outer loop
    vertex 182.98621470233198 64.49999999999989 5.499999999999996
    vertex 181.78621470233205 62.99999999999989 5.499999999999996
    vertex 182.98621470233198 62.99999999999989 5.499999999999996
  endloop
endfacet
facet normal -1.0574874309554634e-15 -3.71048221387882e-17 1.0
  outer loop
    vertex 183.78621470233205 3.0000000000000058 6.499999999999996
    vertex 181.78621470233205 59.9999999999999 6.499999999999996
    vertex 181.78621470233205 3.0 6.499999999999991
  endloop
endfacet
facet normal -1.0574874309554634e-15 -3.71048221387882e-17 1.0
  outer loop
    vertex 181.78621470233205 59.9999999999999 6.499999999999996
    vertex 183.78621470233205 3.0000000000000058 6.499999999999996
    vertex 183.78621470233205 59.9999999999999 6.499999999999996
  endloop
endfacet
facet normal 1.0 0.0 0.0
  outer loop
    vertex 117.78621470233216 73.99999999999987 3.9999999999999947
    vertex 117.78621470233216 70.99999999999993 27.999999999999993
    vertex 117.78621470233216 70.99999999999993 3.9999999999999947
  endloop
endfacet
facet normal 1.0 0.0 0.0
  outer loop
    vertex 117.78621470233216 70.99999999999993 27.999999999999993
    vertex 117.78621470233216 73.99999999999987 3.9999999999999947
    vertex 117.78621470233216 73.99999999999987 29.99999999999999
  endloop
endfacet
facet normal -1.0 0.0 0.0
  outer loop
    vertex 115.78621470233216 69.99999999999989 31.999999999999996
    vertex 115.78621470233216 65.99999999999989 29.999999999999996
    vertex 115.78621470233216 65.99999999999989 31.999999999999996
  endloop
endfacet
facet normal -1.0 0.0 0.0
  outer loop
    vertex 115.78621470233216 65.99999999999989 29.999999999999996
    vertex 115.78621470233216 69.99999999999989 31.999999999999996
    vertex 115.78621470233216 67.99999999999989 3.9999999999999956
  endloop
endfacet
facet normal -1.0 0.0 0.0
  outer loop
    vertex 115.78621470233216 67.99999999999989 3.9999999999999956
    vertex 115.78621470233216 69.99999999999989 31.999999999999996
    vertex 115.78621470233216 69.99999999999989 3.9999999999999956
  endloop
endfacet
facet normal -1.0 0.0 0.0
  outer loop
    vertex 115.78621470233216 3.9999999999999925 29.999999999999996
    vertex 115.78621470233216 0.0 1.9999999999999962
    vertex 115.78621470233216 0.0 28.999999999999996
  endloop
endfacet
facet normal -1.0 0.0 0.0
  outer loop
    vertex 115.78621470233216 0.0 1.9999999999999962
    vertex 115.78621470233216 3.9999999999999925 29.999999999999996
    vertex 115.78621470233216 67.99999999999989 1.9999999999999962
  endloop
endfacet
facet normal -1.0 0.0 0.0
  outer loop
    vertex 115.78621470233216 67.99999999999989 1.9999999999999962
    vertex 115.78621470233216 3.9999999999999925 29.999999999999996
    vertex 115.78621470233216 65.99999999999989 29.999999999999996
  endloop
endfacet
facet normal -1.0 0.0 0.0
  outer loop
    vertex 115.78621470233216 67.99999999999989 1.9999999999999962
    vertex 115.78621470233216 65.99999999999989 29.999999999999996
    vertex 115.78621470233216 67.99999999999989 3.9999999999999956
  endloop
endfacet
facet normal 0.0 1.0 0.0
  outer loop
    vertex 183.78621470233205 73.99999999999987 29.999999999999986
    vertex 185.78621470233202 73.99999999999987 3.9999999999999956
    vertex 183.78621470233205 73.99999999999987 3.9999999999999956
  endloop
endfacet
facet normal 0.0 1.0 0.0
  outer loop
    vertex 185.78621470233202 73.99999999999987 3.9999999999999956
    vertex 183.78621470233205 73.99999999999987 29.999999999999986
    vertex 185.78621470233202 73.99999999999987 29.99999999999999
  endloop
endfacet
endsolid TherMoModuino
